# xmcd CD database file
#
# Track frame offsets:
#	150
#	20820
#	33565
#	54449
#	70883
#	88817
#	109142
#	126068
#	147604
#	163937
#	183055
#	193915
#
# Disc length: 2880 seconds
#
# Revision: 0
# Processed by: cddbd v1.5.1PL2 Copyright (c) Steve Scherf et al.
# Submitted via: CDex 1.51
#
DISCID=b30b3e0c
DTITLE=No Regret Life - Sign
DYEAR=2006
DGENRE=Rock
TTITLE0=メロディー
TTITLE1=西向き
TTITLE2=あの日の未来
TTITLE3=その瞬間に
TTITLE4=扉
TTITLE5=Secret Sign
TTITLE6=オレンジ
TTITLE7=失くした言葉
TTITLE8=夏の午後
TTITLE9=さよならがはじまる
TTITLE10=モノクローム
TTITLE11=Life
EXTD=YEAR: 2006
EXTT0=
EXTT1=
EXTT2=
EXTT3=
EXTT4=
EXTT5=
EXTT6=
EXTT7=
EXTT8=
EXTT9=
EXTT10=
EXTT11=
PLAYORDER=
